REM DIRINDEX 1\2\4,1\2\5,1\2\6,1\3\7,1\3\8
REM DIRNAME folder01,folder02,folder03,folder04,folder05,folder06,folder07,folder08
TITLE ""
FILE "029_Lesson 24_Output_Stage.mp3" MP3
  TRACK 01 AUDIO
    TITLE "0:"
    INDEX 01 00:00:00
  TRACK 02 AUDIO
    TITLE "6:cjc128_1736"
    INDEX 01 00:00:09
  TRACK 03 AUDIO
    TITLE "0:"
    INDEX 01 00:03:27
  TRACK 04 AUDIO
    TITLE "6:cjc128_1737"
    INDEX 01 00:03:64
  TRACK 05 AUDIO
    TITLE "0:"
    INDEX 01 00:05:57
  TRACK 06 AUDIO
    TITLE "4:cjc128_1738"
    INDEX 01 00:06:37
  TRACK 07 AUDIO
    TITLE "0:"
    INDEX 01 00:09:30
  TRACK 08 AUDIO
    TITLE "5:cjc128_1739"
    INDEX 01 00:12:42
  TRACK 09 AUDIO
    TITLE "0:"
    INDEX 01 00:15:21
  TRACK 10 AUDIO
    TITLE "6:cjc128_1740"
    INDEX 01 00:15:70
  TRACK 11 AUDIO
    TITLE "0:"
    INDEX 01 00:17:70
  TRACK 12 AUDIO
    TITLE "4:cjc128_1741"
    INDEX 01 00:18:54
  TRACK 13 AUDIO
    TITLE "0:"
    INDEX 01 00:21:25
  TRACK 14 AUDIO
    TITLE "5:cjc128_1742"
    INDEX 01 00:23:73
  TRACK 15 AUDIO
    TITLE "0:"
    INDEX 01 00:26:28
  TRACK 16 AUDIO
    TITLE "6:cjc128_1743"
    INDEX 01 00:26:71
  TRACK 17 AUDIO
    TITLE "0:"
    INDEX 01 00:29:05
  TRACK 18 AUDIO
    TITLE "4:cjc128_1744"
    INDEX 01 00:29:62
  TRACK 19 AUDIO
    TITLE "0:"
    INDEX 01 00:33:13
  TRACK 20 AUDIO
    TITLE "5:cjc128_1745"
    INDEX 01 00:36:56
  TRACK 21 AUDIO
    TITLE "0:"
    INDEX 01 00:39:72
  TRACK 22 AUDIO
    TITLE "6:cjc128_1746"
    INDEX 01 00:40:46
  TRACK 23 AUDIO
    TITLE "0:"
    INDEX 01 00:42:55
  TRACK 24 AUDIO
    TITLE "4:cjc128_1747"
    INDEX 01 00:43:40
  TRACK 25 AUDIO
    TITLE "0:"
    INDEX 01 00:46:54
  TRACK 26 AUDIO
    TITLE "5:cjc128_1748"
    INDEX 01 00:50:29
  TRACK 27 AUDIO
    TITLE "0:"
    INDEX 01 00:53:29
  TRACK 28 AUDIO
    TITLE "6:cjc128_1749"
    INDEX 01 00:54:09
  TRACK 29 AUDIO
    TITLE "0:"
    INDEX 01 00:56:12
  TRACK 30 AUDIO
    TITLE "4:cjc128_1750"
    INDEX 01 00:56:74
  TRACK 31 AUDIO
    TITLE "0:"
    INDEX 01 00:59:24
  TRACK 32 AUDIO
    TITLE "5:cjc128_1751"
    INDEX 01 01:02:52
  TRACK 33 AUDIO
    TITLE "0:"
    INDEX 01 01:05:11
  TRACK 34 AUDIO
    TITLE "6:cjc128_1752"
    INDEX 01 01:06:06
  TRACK 35 AUDIO
    TITLE "0:"
    INDEX 01 01:08:21
  TRACK 36 AUDIO
    TITLE "4:cjc128_1753"
    INDEX 01 01:09:10
  TRACK 37 AUDIO
    TITLE "0:"
    INDEX 01 01:12:42
  TRACK 38 AUDIO
    TITLE "5:cjc128_1754"
    INDEX 01 01:16:71
  TRACK 39 AUDIO
    TITLE "0:"
    INDEX 01 01:20:71
  TRACK 40 AUDIO
    TITLE "6:cjc128_1755"
    INDEX 01 01:21:49
  TRACK 41 AUDIO
    TITLE "0:"
    INDEX 01 01:23:60
  TRACK 42 AUDIO
    TITLE "4:cjc128_1756"
    INDEX 01 01:24:55
  TRACK 43 AUDIO
    TITLE "0:"
    INDEX 01 01:27:53
  TRACK 44 AUDIO
    TITLE "5:cjc128_1757"
    INDEX 01 01:30:28
  TRACK 45 AUDIO
    TITLE "0:"
    INDEX 01 01:32:70
  TRACK 46 AUDIO
    TITLE "6:cjc128_1758"
    INDEX 01 01:33:42
  TRACK 47 AUDIO
    TITLE "0:"
    INDEX 01 01:35:49
  TRACK 48 AUDIO
    TITLE "4:cjc128_1759"
    INDEX 01 01:36:21
  TRACK 49 AUDIO
    TITLE "0:"
    INDEX 01 01:41:24
  TRACK 50 AUDIO
    TITLE "5:cjc128_1760"
    INDEX 01 01:45:47
  TRACK 51 AUDIO
    TITLE "0:"
    INDEX 01 01:49:53
  TRACK 52 AUDIO
    TITLE "6:cjc128_1761"
    INDEX 01 01:50:29
  TRACK 53 AUDIO
    TITLE "0:"
    INDEX 01 01:52:30
  TRACK 54 AUDIO
    TITLE "4:cjc128_1762"
    INDEX 01 01:53:08
  TRACK 55 AUDIO
    TITLE "0:"
    INDEX 01 01:56:34
  TRACK 56 AUDIO
    TITLE "5:cjc128_1763"
    INDEX 01 01:59:46
  TRACK 57 AUDIO
    TITLE "0:"
    INDEX 01 02:02:09
  TRACK 58 AUDIO
    TITLE "6:cjc128_1764"
    INDEX 01 02:02:60
  TRACK 59 AUDIO
    TITLE "0:"
    INDEX 01 02:05:01
  TRACK 60 AUDIO
    TITLE "4:cjc128_1765"
    INDEX 01 02:05:54
  TRACK 61 AUDIO
    TITLE "0:"
    INDEX 01 02:08:11
  TRACK 62 AUDIO
    TITLE "5:cjc128_1766"
    INDEX 01 02:10:55
  TRACK 63 AUDIO
    TITLE "0:"
    INDEX 01 02:12:72
  TRACK 64 AUDIO
    TITLE "6:cjc128_1767"
    INDEX 01 02:13:46
  TRACK 65 AUDIO
    TITLE "0:"
    INDEX 01 02:15:19
  TRACK 66 AUDIO
    TITLE "4:cjc128_1768"
    INDEX 01 02:16:03
  TRACK 67 AUDIO
    TITLE "0:"
    INDEX 01 02:18:35
  TRACK 68 AUDIO
    TITLE "5:cjc128_1769"
    INDEX 01 02:21:43
  TRACK 69 AUDIO
    TITLE "0:"
    INDEX 01 02:23:58
  TRACK 70 AUDIO
    TITLE "6:cjc128_1770"
    INDEX 01 02:24:59
  TRACK 71 AUDIO
    TITLE "0:"
    INDEX 01 02:26:60
  TRACK 72 AUDIO
    TITLE "4:cjc128_1771"
    INDEX 01 02:27:34
  TRACK 73 AUDIO
    TITLE "0:"
    INDEX 01 02:30:42
  TRACK 74 AUDIO
    TITLE "5:cjc128_1772"
    INDEX 01 02:34:15
  TRACK 75 AUDIO
    TITLE "0:"
    INDEX 01 02:37:11
  TRACK 76 AUDIO
    TITLE "6:cjc128_1773"
    INDEX 01 02:37:70
  TRACK 77 AUDIO
    TITLE "0:"
    INDEX 01 02:39:65
  TRACK 78 AUDIO
    TITLE "4:cjc128_1774"
    INDEX 01 02:40:47
  TRACK 79 AUDIO
    TITLE "0:"
    INDEX 01 02:43:70
  TRACK 80 AUDIO
    TITLE "5:cjc128_1775"
    INDEX 01 02:47:33
  TRACK 81 AUDIO
    TITLE "0:"
    INDEX 01 02:50:35
  TRACK 82 AUDIO
    TITLE "6:cjc128_1776"
    INDEX 01 02:51:09
  TRACK 83 AUDIO
    TITLE "0:"
    INDEX 01 02:53:04
  TRACK 84 AUDIO
    TITLE "4:cjc128_1777"
    INDEX 01 02:53:63
  TRACK 85 AUDIO
    TITLE "0:"
    INDEX 01 02:56:53
  TRACK 86 AUDIO
    TITLE "5:cjc128_1778"
    INDEX 01 03:00:30
  TRACK 87 AUDIO
    TITLE "0:"
    INDEX 01 03:02:72
  TRACK 88 AUDIO
    TITLE "6:cjc128_1779"
    INDEX 01 03:04:16
  TRACK 89 AUDIO
    TITLE "0:"
    INDEX 01 03:06:09
  TRACK 90 AUDIO
    TITLE "4:cjc128_1780"
    INDEX 01 03:06:67
  TRACK 91 AUDIO
    TITLE "0:"
    INDEX 01 03:09:44
  TRACK 92 AUDIO
    TITLE "5:cjc128_1781"
    INDEX 01 03:12:70
  TRACK 93 AUDIO
    TITLE "0:"
    INDEX 01 03:15:57
  TRACK 94 AUDIO
    TITLE "6:cjc128_1782"
    INDEX 01 03:16:27
  TRACK 95 AUDIO
    TITLE "0:"
    INDEX 01 03:18:31
  TRACK 96 AUDIO
    TITLE "4:cjc128_1783"
    INDEX 01 03:19:05
  TRACK 97 AUDIO
    TITLE "0:"
    INDEX 01 03:21:63
  TRACK 98 AUDIO
    TITLE "5:cjc128_1784"
    INDEX 01 03:25:59
  TRACK 99 AUDIO
    TITLE "0:"
    INDEX 01 03:29:02
  TRACK 100 AUDIO
    TITLE "6:cjc128_1785"
    INDEX 01 03:29:59
  TRACK 101 AUDIO
    TITLE "0:"
    INDEX 01 03:31:65
  TRACK 102 AUDIO
    TITLE "4:cjc128_1786"
    INDEX 01 03:32:63
  TRACK 103 AUDIO
    TITLE "0:"
    INDEX 01 03:35:53
  TRACK 104 AUDIO
    TITLE "5:cjc128_1787"
    INDEX 01 03:39:59
  TRACK 105 AUDIO
    TITLE "0:"
    INDEX 01 03:43:18
  TRACK 106 AUDIO
    TITLE "6:cjc128_1788"
    INDEX 01 03:43:71
  TRACK 107 AUDIO
    TITLE "0:"
    INDEX 01 03:45:64
  TRACK 108 AUDIO
    TITLE "4:cjc128_1789"
    INDEX 01 03:46:45
  TRACK 109 AUDIO
    TITLE "0:"
    INDEX 01 03:51:25
  TRACK 110 AUDIO
    TITLE "5:cjc128_1790"
    INDEX 01 03:56:63
  TRACK 111 AUDIO
    TITLE "0:"
    INDEX 01 04:01:53
  TRACK 112 AUDIO
    TITLE "6:cjc128_1791"
    INDEX 01 04:02:31
  TRACK 113 AUDIO
    TITLE "0:"
    INDEX 01 04:04:22
  TRACK 114 AUDIO
    TITLE "4:cjc128_1792"
    INDEX 01 04:04:71
  TRACK 115 AUDIO
    TITLE "0:"
    INDEX 01 04:08:25
  TRACK 116 AUDIO
    TITLE "5:cjc128_1793"
    INDEX 01 04:11:38
  TRACK 117 AUDIO
    TITLE "0:"
    INDEX 01 04:14:18
  TRACK 118 AUDIO
    TITLE "6:cjc128_1794"
    INDEX 01 04:14:65
  TRACK 119 AUDIO
    TITLE "0:"
    INDEX 01 04:16:60
  TRACK 120 AUDIO
    TITLE "4:cjc128_1795"
    INDEX 01 04:17:36
  TRACK 121 AUDIO
    TITLE "0:"
    INDEX 01 04:22:08
  TRACK 122 AUDIO
    TITLE "5:cjc128_1796"
    INDEX 01 04:26:61
  TRACK 123 AUDIO
    TITLE "0:"
    INDEX 01 04:30:64
  TRACK 124 AUDIO
    TITLE "6:cjc128_1797"
    INDEX 01 04:31:40
  TRACK 125 AUDIO
    TITLE "0:"
    INDEX 01 04:33:14
  TRACK 126 AUDIO
    TITLE "4:cjc128_1798"
    INDEX 01 04:33:70
  TRACK 127 AUDIO
    TITLE "0:"
    INDEX 01 04:36:41
  TRACK 128 AUDIO
    TITLE "5:cjc128_1799"
    INDEX 01 04:39:30
  TRACK 129 AUDIO
    TITLE "0:"
    INDEX 01 04:41:48
  TRACK 130 AUDIO
    TITLE "6:cjc128_1800"
    INDEX 01 04:42:28
  TRACK 131 AUDIO
    TITLE "0:"
    INDEX 01 04:44:33
  TRACK 132 AUDIO
    TITLE "4:cjc128_1801"
    INDEX 01 04:45:13
  TRACK 133 AUDIO
    TITLE "0:"
    INDEX 01 04:48:33
  TRACK 134 AUDIO
    TITLE "5:cjc128_1802"
    INDEX 01 04:52:46
  TRACK 135 AUDIO
    TITLE "0:"
    INDEX 01 04:56:23
  TRACK 136 AUDIO
    TITLE "6:cjc128_1803"
    INDEX 01 04:57:00
  TRACK 137 AUDIO
    TITLE "0:"
    INDEX 01 04:59:13
  TRACK 138 AUDIO
    TITLE "4:cjc128_1804"
    INDEX 01 04:59:68
  TRACK 139 AUDIO
    TITLE "0:"
    INDEX 01 05:02:31
  TRACK 140 AUDIO
    TITLE "5:cjc128_1805"
    INDEX 01 05:05:33
  TRACK 141 AUDIO
    TITLE "0:"
    INDEX 01 05:07:69
